# xmcd
#
# Track frame offsets:
#	150
#	3056
#	10868
#	25988
#	38441
#	54646
#	73827
#	90524
#	109509
#	127644
#	140748
#	156197
#	176602
#	195710
#	214219
#	220728
#	229686
#	237837
#
# Disc length: 3358 seconds
#
# Revision: 0
# Processed by: cddbd v1.5.1PL0 Copyright (c) Steve Scherf et al.
# Submitted via: EasyCDDAExtractor 8.0.2.1
#
DISCID=e60d1c12
DTITLE=Saigon - Warning Shots
DYEAR=2004
DGENRE=Hip-Hop
TTITLE0=Intro
TTITLE1=Favorite Things
TTITLE2=Let A Nigga Know
TTITLE3=Come Again
TTITLE4=Stocking Cap
TTITLE5=NY Streetz
TTITLE6=Papi (35 A Gram)
TTITLE7=L.O.V.E.
TTITLE8=Huh Mama
TTITLE9=We Want In (Featuring Ali Vegas and Mekka Millz)
TTITLE10=Kiss The Babies
TTITLE11=Pop Quiz (Multiple Choice)
TTITLE12=Yes
TTITLE13=If... (My Mommy)
TTITLE14=Drama Hour Freestyle
TTITLE15=Shok TV
TTITLE16=DJ Absolut Freestyle
TTITLE17=Whoo Kid Freestyle
EXTD=
EXTT0=
EXTT1=
EXTT2=
EXTT3=
EXTT4=
EXTT5=
EXTT6=
EXTT7=
EXTT8=
EXTT9=
EXTT10=
EXTT11=
EXTT12=
EXTT13=
EXTT14=
EXTT15=
EXTT16=
EXTT17=
PLAYORDER=
